<svg xmlns="http://www.w3.org/2000/svg" xmlns:xlink="http://www.w3.org/1999/xlink" contentStyleType="text/css" height="670px" preserveAspectRatio="none" style="width:954px;height:670px;background:#FFFFFF;" version="1.1" viewBox="0 0 954 670" width="954px" zoomAndPan="magnify"><defs/><g><!--class user--><g id="elem_user"><rect codeLine="1" fill="#F1F1F1" height="243.5625" id="user" rx="2.5" ry="2.5" style="stroke:#181818;stroke-width:0.5;" width="227.8584" x="500.9" y="213.48"/><ellipse cx="594.6241" cy="229.48" fill="#ADD1B2" rx="11" ry="11" style="stroke:#181818;stroke-width:1;"/><path d="M598.7335,235.48 L591.0147,235.48 L591.0147,223.0894 L598.7335,223.0894 L598.7335,225.2456 L593.4679,225.2456 L593.4679,227.9175 L598.2335,227.9175 L598.2335,230.0737 L593.4679,230.0737 L593.4679,233.3237 L598.7335,233.3237 L598.7335,235.48 Z " fill="#000000"/><text fill="#000000" font-family="sans-serif" font-size="14" lengthAdjust="spacing" textLength="31.9102" x="615.1241" y="234.3267">User</text><line style="stroke:#181818;stroke-width:0.5;" x1="501.9" x2="727.7584" y1="245.48" y2="245.48"/><ellipse cx="511.9" cy="259.1284" fill="none" rx="3" ry="3" style="stroke:#038048;stroke-width:1;"/><text fill="#000000" font-family="sans-serif" font-size="14" lengthAdjust="spacing" textLength="76.7539" x="520.9" y="262.4751">id : Integer</text><ellipse cx="511.9" cy="275.4253" fill="none" rx="3" ry="3" style="stroke:#038048;stroke-width:1;"/><text fill="#000000" font-family="sans-serif" font-size="14" lengthAdjust="spacing" textLength="122.1104" x="520.9" y="278.772">password : String</text><ellipse cx="511.9" cy="291.7222" fill="none" rx="3" ry="3" style="stroke:#038048;stroke-width:1;"/><text fill="#000000" font-family="sans-serif" font-size="14" lengthAdjust="spacing" textLength="148.1279" x="520.9" y="295.0689">last_login : DateTime</text><ellipse cx="511.9" cy="308.0191" fill="none" rx="3" ry="3" style="stroke:#038048;stroke-width:1;"/><text fill="#000000" font-family="sans-serif" font-size="14" lengthAdjust="spacing" textLength="158.4502" x="520.9" y="311.3657">is_superuser : Boolean</text><ellipse cx="511.9" cy="324.3159" fill="none" rx="3" ry="3" style="stroke:#038048;stroke-width:1;"/><text fill="#000000" font-family="sans-serif" font-size="14" lengthAdjust="spacing" textLength="125.6377" x="520.9" y="327.6626">username : String</text><ellipse cx="511.9" cy="340.6128" fill="none" rx="3" ry="3" style="stroke:#038048;stroke-width:1;"/><text fill="#000000" font-family="sans-serif" font-size="14" lengthAdjust="spacing" textLength="129.459" x="520.9" y="343.9595">first_name : String</text><ellipse cx="511.9" cy="356.9097" fill="none" rx="3" ry="3" style="stroke:#038048;stroke-width:1;"/><text fill="#000000" font-family="sans-serif" font-size="14" lengthAdjust="spacing" textLength="127.3535" x="520.9" y="360.2564">last_name : String</text><ellipse cx="511.9" cy="373.2066" fill="none" rx="3" ry="3" style="stroke:#038048;stroke-width:1;"/><text fill="#000000" font-family="sans-serif" font-size="14" lengthAdjust="spacing" textLength="94.0078" x="520.9" y="376.5532">email : String</text><ellipse cx="511.9" cy="389.5034" fill="none" rx="3" ry="3" style="stroke:#038048;stroke-width:1;"/><text fill="#000000" font-family="sans-serif" font-size="14" lengthAdjust="spacing" textLength="119.7109" x="520.9" y="392.8501">is_staff : Boolean</text><ellipse cx="511.9" cy="405.8003" fill="none" rx="3" ry="3" style="stroke:#038048;stroke-width:1;"/><text fill="#000000" font-family="sans-serif" font-size="14" lengthAdjust="spacing" textLength="131.0449" x="520.9" y="409.147">is_active : Boolean</text><ellipse cx="511.9" cy="422.0972" fill="none" rx="3" ry="3" style="stroke:#038048;stroke-width:1;"/><text fill="#000000" font-family="sans-serif" font-size="14" lengthAdjust="spacing" textLength="163.0576" x="520.9" y="425.4439">date_joined : DateTime</text><ellipse cx="511.9" cy="438.3941" fill="none" rx="3" ry="3" style="stroke:#038048;stroke-width:1;"/><text fill="#000000" font-family="sans-serif" font-size="14" lengthAdjust="spacing" textLength="201.8584" x="520.9" y="441.7407">personal_image : ImageField</text><line style="stroke:#181818;stroke-width:0.5;" x1="501.9" x2="727.7584" y1="449.0425" y2="449.0425"/></g><!--class friendship--><g id="elem_friendship"><rect codeLine="16" fill="#F1F1F1" height="129.4844" id="friendship" rx="2.5" ry="2.5" style="stroke:#181818;stroke-width:0.5;" width="199.9746" x="514.84" y="534.05"/><ellipse cx="574.07" cy="550.05" fill="#ADD1B2" rx="11" ry="11" style="stroke:#181818;stroke-width:1;"/><path d="M578.1794,556.05 L570.4606,556.05 L570.4606,543.6594 L578.1794,543.6594 L578.1794,545.8156 L572.9137,545.8156 L572.9137,548.4875 L577.6794,548.4875 L577.6794,550.6438 L572.9137,550.6438 L572.9137,553.8938 L578.1794,553.8938 L578.1794,556.05 Z " fill="#000000"/><text fill="#000000" font-family="sans-serif" font-size="14" lengthAdjust="spacing" textLength="73.0146" x="594.57" y="554.8967">Friendship</text><line style="stroke:#181818;stroke-width:0.5;" x1="515.84" x2="713.8146" y1="566.05" y2="566.05"/><ellipse cx="525.84" cy="579.6984" fill="none" rx="3" ry="3" style="stroke:#038048;stroke-width:1;"/><text fill="#000000" font-family="sans-serif" font-size="14" lengthAdjust="spacing" textLength="76.7539" x="534.84" y="583.0451">id : Integer</text><ellipse cx="525.84" cy="595.9953" fill="none" rx="3" ry="3" style="stroke:#038048;stroke-width:1;"/><text fill="#000000" font-family="sans-serif" font-size="14" lengthAdjust="spacing" textLength="134.4014" x="534.84" y="599.342">from_user : Integer</text><ellipse cx="525.84" cy="612.2922" fill="none" rx="3" ry="3" style="stroke:#038048;stroke-width:1;"/><text fill="#000000" font-family="sans-serif" font-size="14" lengthAdjust="spacing" textLength="115.5684" x="534.84" y="615.6389">to_user : Integer</text><ellipse cx="525.84" cy="628.5891" fill="none" rx="3" ry="3" style="stroke:#038048;stroke-width:1;"/><text fill="#000000" font-family="sans-serif" font-size="14" lengthAdjust="spacing" textLength="173.9746" x="534.84" y="631.9357">date_created : DateTime</text><ellipse cx="525.84" cy="644.8859" fill="none" rx="3" ry="3" style="stroke:#038048;stroke-width:1;"/><text fill="#000000" font-family="sans-serif" font-size="14" lengthAdjust="spacing" textLength="98.417" x="534.84" y="648.2326">status : String</text><line style="stroke:#181818;stroke-width:0.5;" x1="515.84" x2="713.8146" y1="655.5344" y2="655.5344"/></g><!--class chatgroup--><g id="elem_chatgroup"><rect codeLine="24" fill="#F1F1F1" height="145.7813" id="chatgroup" rx="2.5" ry="2.5" style="stroke:#181818;stroke-width:0.5;" width="208.3691" x="74.64" y="262.37"/><ellipse cx="136.7513" cy="278.37" fill="#ADD1B2" rx="11" ry="11" style="stroke:#181818;stroke-width:1;"/><path d="M140.8607,284.37 L133.142,284.37 L133.142,271.9794 L140.8607,271.9794 L140.8607,274.1356 L135.5951,274.1356 L135.5951,276.8075 L140.3607,276.8075 L140.3607,278.9637 L135.5951,278.9637 L135.5951,282.2137 L140.8607,282.2137 L140.8607,284.37 Z " fill="#000000"/><text fill="#000000" font-family="sans-serif" font-size="14" lengthAdjust="spacing" textLength="75.6465" x="157.2513" y="283.2167">ChatGroup</text><line style="stroke:#181818;stroke-width:0.5;" x1="75.64" x2="282.0091" y1="294.37" y2="294.37"/><ellipse cx="85.64" cy="308.0184" fill="none" rx="3" ry="3" style="stroke:#038048;stroke-width:1;"/><text fill="#000000" font-family="sans-serif" font-size="14" lengthAdjust="spacing" textLength="76.7539" x="94.64" y="311.3651">id : Integer</text><ellipse cx="85.64" cy="324.3153" fill="none" rx="3" ry="3" style="stroke:#038048;stroke-width:1;"/><text fill="#000000" font-family="sans-serif" font-size="14" lengthAdjust="spacing" textLength="95.1016" x="94.64" y="327.662">name : String</text><ellipse cx="85.64" cy="340.6122" fill="none" rx="3" ry="3" style="stroke:#038048;stroke-width:1;"/><text fill="#000000" font-family="sans-serif" font-size="14" lengthAdjust="spacing" textLength="122.3975" x="94.64" y="343.9589">description : Text</text><ellipse cx="85.64" cy="356.9091" fill="none" rx="3" ry="3" style="stroke:#038048;stroke-width:1;"/><text fill="#000000" font-family="sans-serif" font-size="14" lengthAdjust="spacing" textLength="156.4746" x="94.64" y="360.2557">created_at : DateTime</text><ellipse cx="85.64" cy="373.2059" fill="none" rx="3" ry="3" style="stroke:#038048;stroke-width:1;"/><text fill="#000000" font-family="sans-serif" font-size="14" lengthAdjust="spacing" textLength="161.0547" x="94.64" y="376.5526">updated_at : DateTime</text><ellipse cx="85.64" cy="389.5028" fill="none" rx="3" ry="3" style="stroke:#038048;stroke-width:1;"/><text fill="#000000" font-family="sans-serif" font-size="14" lengthAdjust="spacing" textLength="182.3691" x="94.64" y="392.8495">group_image : ImageField</text><line style="stroke:#181818;stroke-width:0.5;" x1="75.64" x2="282.0091" y1="400.1512" y2="400.1512"/></g><!--class groupmembership--><g id="elem_groupmembership"><rect codeLine="33" fill="#F1F1F1" height="129.4844" id="groupmembership" rx="2.5" ry="2.5" style="stroke:#181818;stroke-width:0.5;" width="189.0576" x="223.3" y="7"/><ellipse cx="250.7194" cy="23" fill="#ADD1B2" rx="11" ry="11" style="stroke:#181818;stroke-width:1;"/><path d="M254.8288,29 L247.11,29 L247.11,16.6094 L254.8288,16.6094 L254.8288,18.7656 L249.5631,18.7656 L249.5631,21.4375 L254.3288,21.4375 L254.3288,23.5938 L249.5631,23.5938 L249.5631,26.8438 L254.8288,26.8438 L254.8288,29 Z " fill="#000000"/><text fill="#000000" font-family="sans-serif" font-size="14" lengthAdjust="spacing" textLength="129.459" x="267.4792" y="27.8467">GroupMembership</text><line style="stroke:#181818;stroke-width:0.5;" x1="224.3" x2="411.3576" y1="39" y2="39"/><ellipse cx="234.3" cy="52.6484" fill="none" rx="3" ry="3" style="stroke:#038048;stroke-width:1;"/><text fill="#000000" font-family="sans-serif" font-size="14" lengthAdjust="spacing" textLength="76.7539" x="243.3" y="55.9951">id : Integer</text><ellipse cx="234.3" cy="68.9453" fill="none" rx="3" ry="3" style="stroke:#038048;stroke-width:1;"/><text fill="#000000" font-family="sans-serif" font-size="14" lengthAdjust="spacing" textLength="94.5137" x="243.3" y="72.292">user : Integer</text><ellipse cx="234.3" cy="85.2422" fill="none" rx="3" ry="3" style="stroke:#038048;stroke-width:1;"/><text fill="#000000" font-family="sans-serif" font-size="14" lengthAdjust="spacing" textLength="104.9453" x="243.3" y="88.5889">group : Integer</text><ellipse cx="234.3" cy="101.5391" fill="none" rx="3" ry="3" style="stroke:#038048;stroke-width:1;"/><text fill="#000000" font-family="sans-serif" font-size="14" lengthAdjust="spacing" textLength="82.2227" x="243.3" y="104.8857">role : String</text><ellipse cx="234.3" cy="117.8359" fill="none" rx="3" ry="3" style="stroke:#038048;stroke-width:1;"/><text fill="#000000" font-family="sans-serif" font-size="14" lengthAdjust="spacing" textLength="163.0576" x="243.3" y="121.1826">date_joined : DateTime</text><line style="stroke:#181818;stroke-width:0.5;" x1="224.3" x2="411.3576" y1="128.4844" y2="128.4844"/></g><!--link user to friendship--><g id="link_user_friendship"><path codeLine="42" d="M500.41,409.31 C471.66,437.07 453.55,470.2 471.83,504.05 C481.84,522.59 497.3,538.06 514.42,550.73 " fill="none" id="user-friendship" style="stroke:#181818;stroke-width:1;"/><text fill="#000000" font-family="sans-serif" font-size="13" lengthAdjust="spacing" textLength="238.4751" x="472.83" y="500.1169">Has many friendships (one-to-many)</text><text fill="#000000" font-family="sans-serif" font-size="13" lengthAdjust="spacing" textLength="23.0356" x="483.9024" y="544.0683">1..*</text></g><!--link friendship to user--><g id="link_friendship_user"><path codeLine="43" d="M706.56,533.73 C716.26,519.72 720.97,503.98 715.83,487.05 C712.8,477.1 708.88,467.21 704.34,457.53 " fill="none" id="friendship-user" style="stroke:#181818;stroke-width:1;"/><text fill="#000000" font-family="sans-serif" font-size="13" lengthAdjust="spacing" textLength="227.2017" x="718.83" y="500.1169">Belongs to one user (many-to-one)</text><text fill="#000000" font-family="sans-serif" font-size="13" lengthAdjust="spacing" textLength="23.0356" x="685.851" y="477.103">1..*</text></g><!--link chatgroup to groupmembership--><g id="link_chatgroup_groupmembership"><path codeLine="44" d="M231.95,262.06 C248.32,237.84 265.52,210.19 278.83,183.48 C286.14,168.8 292.71,152.39 298.29,136.81 " fill="none" id="chatgroup-groupmembership" style="stroke:#181818;stroke-width:1;"/><text fill="#000000" font-family="sans-serif" font-size="13" lengthAdjust="spacing" textLength="255.3726" x="285.83" y="179.5469">Has many memberships (one-to-many)</text><text fill="#000000" font-family="sans-serif" font-size="13" lengthAdjust="spacing" textLength="23.0356" x="272.091" y="156.3673">1..*</text></g><!--link groupmembership to chatgroup--><g id="link_groupmembership_chatgroup"><path codeLine="46" d="M223.03,76.48 C157.97,84.59 75.89,106.99 32.83,166.48 C6,203.55 35.29,242.25 74.5,273.13 " fill="none" id="groupmembership-chatgroup" style="stroke:#181818;stroke-width:1;"/><text fill="#000000" font-family="sans-serif" font-size="13" lengthAdjust="spacing" textLength="236.8882" x="33.83" y="179.5469">Belongs to one group (many-to-one)</text><text fill="#000000" font-family="sans-serif" font-size="13" lengthAdjust="spacing" textLength="24.8066" x="41.987" y="265.0883">1..1</text></g><!--link groupmembership to user--><g id="link_groupmembership_user"><path codeLine="45" d="M412.84,92.31 C459.3,106.15 513,129.13 549.83,166.48 C562.98,179.83 573.55,196.14 582,213.29 " fill="none" id="groupmembership-user" style="stroke:#181818;stroke-width:1;"/><text fill="#000000" font-family="sans-serif" font-size="13" lengthAdjust="spacing" textLength="201.9316" x="562.83" y="179.5469">Has many users (many-to-one)</text><text fill="#000000" font-family="sans-serif" font-size="13" lengthAdjust="spacing" textLength="23.0356" x="556.2998" y="202.4713">1..*</text></g><!--SRC=[XP9FJuD04CNlV8eD5wk49htsM4sr1ozQpsGj0rspVyZke3R6x-xiWeKk6Bd0licy-SrRGAF04qjV7DYKSSTQ-c1V2QCd4oLRivr6gC5sIiET-p3MwyzeXQuxMNA7XJIrq5IuumXxeQ3tS8Lh6x31TyqsnaZWkgjvJNC5aLibBDdD5CAO6HqK5pBI_5paLHNF99qVKBn3N2W9ktWpGaCvMOBudT5S5aBnsdVk_7ihG9R9Tv907-BM2j2bEuecH5cTZo7GECwiiaOLVIuZ6SsC6EWE5kWLuMMq9hPkM7y4T7laU6zDs_4Sw5JxqpnE76nMWZjOqQ0m_bhty8bUxI4AZX57svJpXJ3pd-W2vIEeLqhwDx_GfyxQFFKqgcx52ydIFL-kDd_P17J5da1olxEVwPBWd-SiNIsND-duJjSiVI1AnVLf93ksC1foDBalNAV9g6EmwQdJ3KYZQyVGCEhgv8Llz0QaKFzmQqDxdCmOPP0dA77RbEViuWKNe_pHlqf7lzPqgKw_jFe1]--></g></svg>